<?xml version="1.0" encoding="UTF-8"?>
<svg id="Capa_2" data-name="Capa 2" xmlns="http://www.w3.org/2000/svg" xmlns:xlink="http://www.w3.org/1999/xlink" viewBox="0 0 208.12 251.77">
  <defs>
    <style>
      .cls-1, .cls-2, .cls-3 {
        fill: #f4f4f4;
      }

      .cls-4 {
        clip-path: url(#clippath-2);
      }

      .cls-2 {
        clip-rule: evenodd;
      }

      .cls-5 {
        clip-path: url(#clippath-1);
      }

      .cls-6 {
        clip-path: url(#clippath);
      }

      .cls-3 {
        fill-rule: evenodd;
      }
    </style>
    <clipPath id="clippath">
      <path class="cls-2" d="m76.57,110.36c17.33-.11,33.44-6.24,50.55-17.34l68.35-44.39,3.23-2.1c5.76-4.43,9.28-11.29,9.42-18.7V0l-99.48,64.56c-11.74,7.63-22.11,11.83-32.2,11.89-10.23.07-21.36-4.01-34.73-12.95L.04,35.67l-.04,27.8c.14,7.41,3.65,14.26,9.42,18.7,22.01,14.3,39.35,28.37,67.15,28.19"/>
    </clipPath>
    <clipPath id="clippath-1">
      <path class="cls-2" d="m76.57,181.06c17.33-.11,33.44-6.24,50.55-17.34l68.35-44.39,3.23-2.1c5.76-4.43,9.28-11.29,9.42-18.7v-27.83l-99.48,64.56c-11.74,7.63-22.11,11.83-32.2,11.89-10.23.07-21.36-4.01-34.73-12.95L.04,106.37l-.04,27.8c.14,7.41,3.65,14.26,9.42,18.7l3.23,2.1,24.47,15.89c13.73,7.03,26.61,10.29,39.45,10.2"/>
    </clipPath>
    <clipPath id="clippath-2">
      <path class="cls-2" d="m76.57,251.77c17.33-.11,33.44-6.24,50.55-17.34l68.35-44.39,3.23-2.1c5.76-4.43,9.28-11.29,9.42-18.7v-27.83l-99.48,64.56c-11.74,7.63-22.11,11.83-32.2,11.89-10.23.07-21.36-4.01-34.73-12.95L.04,177.08l-.04,27.8c.14,7.41,3.65,14.26,9.42,18.7l3.23,2.1,24.47,15.89c13.73,7.03,26.61,10.29,39.45,10.2"/>
    </clipPath>
  </defs>
  <g id="Capa_1-2" data-name="Capa 1">
    <g>
      <g>
        <path class="cls-3" d="m76.57,110.36c17.33-.11,33.44-6.24,50.55-17.34l68.35-44.39,3.23-2.1c5.76-4.43,9.28-11.29,9.42-18.7V0l-99.48,64.56c-11.74,7.63-22.11,11.83-32.2,11.89-10.23.07-21.36-4.01-34.73-12.95L.04,35.67l-.04,27.8c.14,7.41,3.65,14.26,9.42,18.7,22.01,14.3,39.35,28.37,67.15,28.19"/>
        <g class="cls-6">
          <rect class="cls-1" width="208.12" height="110.54"/>
        </g>
      </g>
      <g>
        <path class="cls-3" d="m76.57,181.06c17.33-.11,33.44-6.24,50.55-17.34l68.35-44.39,3.23-2.1c5.76-4.43,9.28-11.29,9.42-18.7v-27.83l-99.48,64.56c-11.74,7.63-22.11,11.83-32.2,11.89-10.23.07-21.36-4.01-34.73-12.95L.04,106.37l-.04,27.8c.14,7.41,3.65,14.26,9.42,18.7l3.23,2.1,24.47,15.89c13.73,7.03,26.61,10.29,39.45,10.2"/>
        <g class="cls-5">
          <rect class="cls-1" y="70.71" width="208.12" height="110.44"/>
        </g>
      </g>
      <g>
        <path class="cls-3" d="m76.57,251.77c17.33-.11,33.44-6.24,50.55-17.34l68.35-44.39,3.23-2.1c5.76-4.43,9.28-11.29,9.42-18.7v-27.83l-99.48,64.56c-11.74,7.63-22.11,11.83-32.2,11.89-10.23.07-21.36-4.01-34.73-12.95L.04,177.08l-.04,27.8c.14,7.41,3.65,14.26,9.42,18.7l3.23,2.1,24.47,15.89c13.73,7.03,26.61,10.29,39.45,10.2"/>
        <g class="cls-4">
          <rect class="cls-1" y="141.41" width="208.12" height="110.44"/>
        </g>
      </g>
    </g>
  </g>
</svg>